<?xml version="1.0" encoding="utf-8"?>
<!-- Generator: Adobe Illustrator 22.0.0, SVG Export Plug-In . SVG Version: 6.00 Build 0)  -->
<svg version="1.1" id="Слой_1" xmlns="http://www.w3.org/2000/svg" xmlns:xlink="http://www.w3.org/1999/xlink" x="0px" y="0px"
	 viewBox="0 0 13.9 13.4" style="enable-background:new 0 0 13.9 13.4;" xml:space="preserve">
<style type="text/css">
	.st0{fill:#333233;}
</style>
<g>
	<path class="st0" d="M8.7,9.4c-0.3-0.1-0.4-1-0.4-1s1-1,1.2-2.3c0.6,0,1-1.4,0.4-1.9c0-0.5,0.8-4.1-3-4.1S4,3.6,4,4.1
		C3.4,4.6,3.8,6.1,4.3,6.1c0.2,1.3,1.2,2.3,1.2,2.3s0,0.9-0.4,1c-1.1,0.2-5.2,2-5.2,4h13.9C13.9,11.4,9.8,9.6,8.7,9.4L8.7,9.4z
		 M8.7,9.4"/>
</g>
</svg>
