<?xml version="1.0" encoding="utf-8"?>
<!-- Generator: Adobe Illustrator 22.0.0, SVG Export Plug-In . SVG Version: 6.00 Build 0)  -->
<svg version="1.1" id="Слой_1" xmlns="http://www.w3.org/2000/svg" xmlns:xlink="http://www.w3.org/1999/xlink" x="0px" y="0px"
	 viewBox="0 0 12.7 9.5" style="enable-background:new 0 0 12.7 9.5;" xml:space="preserve">
<style type="text/css">
	.st0{fill:#424143;}
</style>
<g id="XMLID_54_">
	<path id="XMLID_55_" class="st0" d="M12.7,7.9c0,0.3-0.1,0.5-0.2,0.8l-4-4.5l4-3.5c0.2,0.2,0.2,0.5,0.2,0.8V7.9z M6.4,5l5.5-4.8
		C11.7,0.1,11.4,0,11.1,0H1.6C1.3,0,1.1,0.1,0.8,0.2L6.4,5z M7.9,4.7L6.6,5.9C6.5,5.9,6.4,6,6.4,6c-0.1,0-0.2,0-0.3-0.1L4.8,4.7
		L0.8,9.3C1,9.4,1.3,9.5,1.6,9.5h9.5c0.3,0,0.6-0.1,0.8-0.2L7.9,4.7z M0.2,0.7C0.1,1,0,1.3,0,1.6v6.4c0,0.3,0.1,0.5,0.2,0.8l4-4.5
		L0.2,0.7z M0.2,0.7"/>
</g>
</svg>
