<?xml version="1.0" encoding="utf-8"?>
<!-- Generator: Adobe Illustrator 22.0.0, SVG Export Plug-In . SVG Version: 6.00 Build 0)  -->
<svg version="1.1" id="Слой_1" xmlns="http://www.w3.org/2000/svg" xmlns:xlink="http://www.w3.org/1999/xlink" x="0px" y="0px"
	 viewBox="0 0 10 15.1" style="enable-background:new 0 0 10 15.1;" xml:space="preserve">
<style type="text/css">
	.st0{fill:#424143;}
</style>
<g id="XMLID_49_">
	<path id="XMLID_50_" class="st0" d="M5,0C2.2,0,0,2.2,0,5c0,1.1,0.7,2.9,2.2,5.5c1,1.8,2,3.4,2.1,3.5L5,15.1L5.7,14
		c0-0.1,1.1-1.6,2.1-3.5C9.3,7.9,10,6.1,10,5C10,2.2,7.7,0,5,0L5,0z M5,7.5C3.6,7.5,2.4,6.4,2.4,5c0-1.4,1.2-2.6,2.6-2.6
		c1.4,0,2.6,1.2,2.6,2.6C7.6,6.4,6.4,7.5,5,7.5L5,7.5z M5,7.5"/>
</g>
</svg>
