<?xml version="1.0" encoding="utf-8"?>
<!-- Generator: Adobe Illustrator 22.0.0, SVG Export Plug-In . SVG Version: 6.00 Build 0)  -->
<svg version="1.1" id="Слой_1" xmlns="http://www.w3.org/2000/svg" xmlns:xlink="http://www.w3.org/1999/xlink" x="0px" y="0px"
	 viewBox="0 0 9.6 9.6" style="enable-background:new 0 0 9.6 9.6;" xml:space="preserve">
<style type="text/css">
	.st0{fill:#424143;}
</style>
<path id="XMLID_46_" class="st0" d="M9.6,7.6c0,0.2,0,0.3-0.1,0.4L8.1,9.3C8.1,9.4,8,9.5,7.9,9.5c-0.1,0-0.2,0.1-0.3,0.1
	c0,0,0,0-0.1,0c0,0-0.1,0-0.1,0c-0.1,0-0.3,0-0.6-0.1c-0.3,0-0.6-0.2-1.1-0.3C5.3,9,4.8,8.8,4.3,8.4C3.8,8.1,3.2,7.6,2.6,7
	C2.1,6.5,1.7,6.1,1.4,5.7C1.1,5.2,0.9,4.8,0.7,4.5c-0.2-0.4-0.3-0.7-0.4-1C0.1,3.2,0.1,2.9,0,2.7c0-0.2,0-0.4,0-0.5C0,2.1,0,2,0,2
	c0-0.1,0-0.2,0.1-0.3c0-0.1,0.1-0.2,0.2-0.2l1.4-1.4C1.7,0,1.8,0,2,0C2,0,2.1,0,2.2,0.1c0.1,0.1,0.1,0.1,0.2,0.2l1.1,2.1
	c0.1,0.1,0.1,0.2,0.1,0.4c0,0.1-0.1,0.2-0.2,0.3L2.8,3.5c0,0,0,0,0,0.1c0,0,0,0.1,0,0.1C2.8,3.8,2.9,4,3,4.1C3,4.3,3.2,4.5,3.3,4.7
	C3.5,5,3.8,5.2,4.1,5.5c0.3,0.3,0.6,0.6,0.8,0.7c0.2,0.2,0.4,0.3,0.6,0.4c0.2,0.1,0.3,0.1,0.4,0.1l0.1,0c0,0,0,0,0.1,0
	c0,0,0.1,0,0.1,0l0.6-0.6C6.8,6.1,6.9,6,7.1,6c0.1,0,0.2,0,0.3,0.1h0l2,1.2C9.5,7.3,9.6,7.4,9.6,7.6L9.6,7.6z M9.6,7.6"/>
</svg>
