<?xml version="1.0" encoding="utf-8"?>
<!-- Generator: Adobe Illustrator 22.0.0, SVG Export Plug-In . SVG Version: 6.00 Build 0)  -->
<svg version="1.1" id="Слой_1" xmlns="http://www.w3.org/2000/svg" xmlns:xlink="http://www.w3.org/1999/xlink" x="0px" y="0px"
	 viewBox="0 0 250.8 250.3" style="enable-background:new 0 0 250.8 250.3;" xml:space="preserve">
<style type="text/css">
	.st0{fill-rule:evenodd;clip-rule:evenodd;fill:#424143;}
	.st1{fill:#FFFFFF;}
</style>
<g>
	<g id="circle_2_copy">
		<path class="st0" d="M125.4,0C56.1,0,0,56,0,125.2c0,69.1,56.1,125.2,125.4,125.2c69.3,0,125.4-56,125.4-125.2
			C250.8,56,194.6,0,125.4,0z"/>
	</g>
	<path id="icon" class="st1" d="M132.5,174.4c-1,1.2-2.5,1.8-6.2,2c-5.3,0.3-9.5-0.4-11.1-0.7c-1.4-0.3-6.3-1.2-10.5-2.7
		c-14.3-5.1-26.6-19.2-29.6-22.8c-3.2-3.8-0.7-1.3-15.4-23.5c0,0-10.9-16.3-17.9-38.9c-0.3-0.9-0.7-2.6,0-4c0.7-1.3,2.2-1.8,3.1-2
		c8.2,0,16.4,0,24.7,0c0.8,0.3,2,0.8,3.1,2c1.2,1.3,1.7,2.8,1.8,3.4c0.9,2.8,3.7,9.2,8,18.8c4,6.8,13.3,22,17.9,20.1
		c2.1-0.9,2.6-6.8,3.1-18.8c0.4-9.6,0.1-15.7-2.5-18.1c-3.8-3.6-5.5-4-5.5-4c-0.4-0.1-1-0.2-1.2-0.7c-0.5-1.1,1.3-3.1,2.5-4
		c0.7-0.6,2.1-1.6,4.3-2c8.6,0,17.3,0,25.9,0c0.7,0.1,2.7,0.7,4.3,2.7c2,2.5,1.9,5.4,1.8,6c0,11.2,0,22.4,0,33.5c0.2,1,1,4,3.1,4.7
		c0.6,0.2,2,0.4,4.3-1.3c9-6.8,20.2-34.1,21.6-38.9c0.1-0.3,0.4-1.3,1.2-2c0.7-0.5,1.4-0.6,1.8-0.7c1.7-0.1,13.2-0.1,29,0
		c0.9,0.1,2.7,0.5,3.7,2c1.1,1.7,0.8,3.8,0.6,4.7c-1.6,9.3-21.4,35-24,39.6c-0.3,0.6-1.2,2-1.2,4c0,0.3,0,1.7,0.6,3.4
		c1.6,4.1,6.7,8.4,9.2,10.7c0.6,0.5,3.5,3.7,9.2,10.1c3,3.3,5,5.6,6.2,9.4c0.5,1.7,1.3,4.4,0,6.7c-0.9,1.6-2.3,2.4-3.1,2.7
		c-9.9,0-19.7,0-29.6,0c-4.6-2.1-7.5-4.7-9.2-6.7c-1.2-1.3-3.2-4-7.4-9.4c-1.6-2.1-2.3-3.1-3.7-4c-0.4-0.3-5.1-3.3-8-1.3
		c-3.1,2.1-3.4,9.2-3.7,14.8C133.6,171.2,133.7,173,132.5,174.4z"/>
</g>
</svg>
